<svg width="73" height="23" viewBox="0 0 73 23" fill="none" xmlns="http://www.w3.org/2000/svg">
<path d="M10.23 22.72C8.3 22.72 6.645 22.31 5.265 21.49C3.885 20.66 2.825 19.47 2.085 17.92C1.345 16.36 0.975 14.49 0.975 12.31C0.975 10.28 1.31 8.485 1.98 6.925C2.65 5.365 3.625 4.145 4.905 3.265C6.195 2.375 7.76 1.93 9.6 1.93C10.56 1.93 11.505 2.06 12.435 2.32C13.365 2.57 14.225 2.945 15.015 3.445C15.805 3.935 16.455 4.55 16.965 5.29C16.765 5.52 16.425 5.855 15.945 6.295C15.475 6.725 14.95 7.17 14.37 7.63C13.8 8.09 13.25 8.485 12.72 8.815C12.55 8.565 12.33 8.31 12.06 8.05C11.79 7.79 11.46 7.57 11.07 7.39C10.68 7.21 10.215 7.12 9.675 7.12C9.135 7.12 8.655 7.275 8.235 7.585C7.815 7.885 7.465 8.295 7.185 8.815C6.905 9.325 6.695 9.915 6.555 10.585C6.415 11.255 6.345 11.955 6.345 12.685C6.345 13.695 6.485 14.605 6.765 15.415C7.055 16.215 7.49 16.85 8.07 17.32C8.66 17.78 9.4 18.01 10.29 18.01C10.77 18.01 11.2 17.915 11.58 17.725C11.97 17.535 12.275 17.28 12.495 16.96C12.715 16.63 12.825 16.28 12.825 15.91C12.825 15.78 12.82 15.675 12.81 15.595C12.81 15.505 12.8 15.42 12.78 15.34C12.63 15.3 12.4 15.255 12.09 15.205C11.78 15.155 11.44 15.11 11.07 15.07C10.71 15.02 10.365 14.98 10.035 14.95C9.705 14.92 9.435 14.905 9.225 14.905C9.215 14.595 9.22 14.2 9.24 13.72C9.26 13.23 9.285 12.745 9.315 12.265C9.345 11.775 9.375 11.385 9.405 11.095C10.095 11.105 10.945 11.165 11.955 11.275C12.965 11.375 13.975 11.505 14.985 11.665C16.005 11.825 16.87 12.005 17.58 12.205C17.68 12.545 17.75 12.95 17.79 13.42C17.83 13.89 17.85 14.315 17.85 14.695C17.85 16.105 17.57 17.425 17.01 18.655C16.45 19.875 15.605 20.86 14.475 21.61C13.355 22.35 11.94 22.72 10.23 22.72ZM28.9709 21.385C28.6709 21.665 28.1059 21.94 27.2759 22.21C26.4559 22.49 25.5609 22.63 24.5909 22.63C23.3409 22.63 22.3859 22.35 21.7259 21.79C21.0759 21.22 20.6309 20.42 20.3909 19.39C20.1609 18.36 20.0459 17.145 20.0459 15.745C20.0459 14.585 20.0559 13.445 20.0759 12.325C20.0959 11.195 20.1209 10.095 20.1509 9.025C20.1909 7.955 20.2309 6.925 20.2709 5.935C20.3109 4.935 20.3559 3.985 20.4059 3.085C20.4559 2.185 20.5059 1.345 20.5559 0.565C21.3559 0.504999 22.0909 0.474999 22.7609 0.474999C23.1909 0.474999 23.6159 0.484999 24.0359 0.504999C24.4659 0.524998 24.9359 0.559998 25.4459 0.609998C25.3959 1.54 25.3359 2.545 25.2659 3.625C25.2059 4.695 25.1459 5.78 25.0859 6.88C25.0259 7.97 24.9709 9.02 24.9209 10.03C24.8709 11.03 24.8309 11.925 24.8009 12.715C24.7709 13.505 24.7559 14.125 24.7559 14.575C24.7559 15.175 24.7809 15.73 24.8309 16.24C24.8909 16.75 25.0059 17.16 25.1759 17.47C25.3559 17.77 25.6209 17.92 25.9709 17.92C26.3009 17.92 26.5709 17.855 26.7809 17.725C26.9909 17.585 27.1609 17.405 27.2909 17.185C27.3609 17.325 27.4759 17.595 27.6359 17.995C27.8059 18.395 27.9859 18.84 28.1759 19.33C28.3659 19.81 28.5359 20.245 28.6859 20.635C28.8359 21.025 28.9309 21.275 28.9709 21.385ZM49.781 21.955C49.771 21.825 49.756 21.645 49.736 21.415C49.726 21.175 49.716 20.93 49.706 20.68C49.706 20.43 49.706 20.22 49.706 20.05C49.576 20.23 49.381 20.435 49.121 20.665C48.861 20.885 48.531 21.1 48.131 21.31C47.741 21.52 47.276 21.695 46.736 21.835C46.196 21.965 45.576 22.03 44.876 22.03C43.646 22.03 42.576 21.72 41.666 21.1C40.766 20.47 40.071 19.63 39.581 18.58C39.101 17.52 38.861 16.345 38.861 15.055C38.861 13.745 39.106 12.53 39.596 11.41C40.086 10.28 40.826 9.365 41.816 8.665C42.816 7.965 44.066 7.615 45.566 7.615C46.266 7.615 46.906 7.695 47.486 7.855C48.076 8.015 48.576 8.22 48.986 8.47C49.406 8.72 49.701 8.985 49.871 9.265C49.901 8.665 49.941 8 49.991 7.27C50.051 6.53 50.111 5.78 50.171 5.02C50.241 4.25 50.306 3.53 50.366 2.86C50.436 2.19 50.496 1.62 50.546 1.15C50.596 0.669999 50.631 0.354999 50.651 0.204999C51.291 0.204999 52.011 0.244999 52.811 0.324999C53.621 0.394999 54.341 0.514999 54.971 0.684998C54.801 2.965 54.666 5.24 54.566 7.51C54.466 9.78 54.391 12.115 54.341 14.515C54.301 16.905 54.281 19.435 54.281 22.105C54.031 22.105 53.616 22.1 53.036 22.09C52.456 22.08 51.861 22.06 51.251 22.03C50.641 22.01 50.151 21.985 49.781 21.955ZM46.301 17.125C46.641 17.125 46.971 17.09 47.291 17.02C47.611 16.95 47.911 16.85 48.191 16.72C48.471 16.59 48.731 16.435 48.971 16.255C49.211 16.075 49.416 15.875 49.586 15.655C49.586 15.465 49.586 15.25 49.586 15.01C49.586 14.77 49.586 14.53 49.586 14.29C49.586 14.05 49.586 13.825 49.586 13.615C49.596 13.405 49.606 13.23 49.616 13.09C49.406 12.88 49.116 12.685 48.746 12.505C48.386 12.325 47.996 12.185 47.576 12.085C47.156 11.975 46.741 11.92 46.331 11.92C45.511 11.92 44.861 12.17 44.381 12.67C43.901 13.16 43.661 13.795 43.661 14.575C43.661 15.395 43.886 16.025 44.336 16.465C44.796 16.905 45.451 17.125 46.301 17.125ZM71.9707 19.525C71.6807 19.885 71.3157 20.23 70.8757 20.56C70.4457 20.88 69.9357 21.16 69.3457 21.4C68.7657 21.63 68.1007 21.815 67.3507 21.955C66.6107 22.095 65.7807 22.165 64.8607 22.165C63.3507 22.165 62.0007 21.88 60.8107 21.31C59.6307 20.74 58.7057 19.895 58.0357 18.775C57.3757 17.655 57.0457 16.255 57.0457 14.575C57.0457 12.855 57.3857 11.355 58.0657 10.075C58.7457 8.795 59.7057 7.805 60.9457 7.105C62.1857 6.395 63.6357 6.04 65.2957 6.04C67.3957 6.04 69.0557 6.61 70.2757 7.75C71.4957 8.88 72.1207 10.465 72.1507 12.505C72.1507 12.895 72.1357 13.24 72.1057 13.54C72.0857 13.84 72.0407 14.165 71.9707 14.515C71.8207 14.505 71.4857 14.495 70.9657 14.485C70.4557 14.475 69.8807 14.465 69.2407 14.455C68.6007 14.445 68.0057 14.435 67.4557 14.425C66.9057 14.415 66.5207 14.41 66.3007 14.41C65.4907 14.41 64.7157 14.445 63.9757 14.515C63.2357 14.585 62.6357 14.66 62.1757 14.74C62.1757 14.89 62.1857 15.04 62.2057 15.19C62.2257 15.34 62.2607 15.48 62.3107 15.61C62.4307 15.96 62.6307 16.255 62.9107 16.495C63.1907 16.735 63.5307 16.92 63.9307 17.05C64.3307 17.17 64.7557 17.23 65.2057 17.23C65.5757 17.23 65.9207 17.195 66.2407 17.125C66.5707 17.045 66.8857 16.93 67.1857 16.78C67.4857 16.63 67.7707 16.455 68.0407 16.255C68.3107 16.055 68.5807 15.83 68.8507 15.58C68.9107 15.63 69.0757 15.79 69.3457 16.06C69.6157 16.33 69.9207 16.665 70.2607 17.065C70.6107 17.465 70.9407 17.885 71.2507 18.325C71.5707 18.755 71.8107 19.155 71.9707 19.525ZM62.3857 11.68C62.7557 11.61 63.2157 11.55 63.7657 11.5C64.3257 11.45 64.9757 11.425 65.7157 11.425C66.1257 11.425 66.5007 11.435 66.8407 11.455C67.1807 11.465 67.4207 11.475 67.5607 11.485C67.5607 11.315 67.5307 11.125 67.4707 10.915C67.3907 10.615 67.2407 10.34 67.0207 10.09C66.8107 9.84 66.5457 9.64 66.2257 9.49C65.9057 9.33 65.5307 9.25 65.1007 9.25C64.5307 9.25 64.0457 9.375 63.6457 9.625C63.2557 9.875 62.9557 10.19 62.7457 10.57C62.5357 10.94 62.4157 11.31 62.3857 11.68Z" fill="white"/>
<path d="M35.5038 21.97C35.3338 21.98 34.9788 22 34.4388 22.03C33.8988 22.07 33.3338 22.09 32.7438 22.09C32.3138 22.09 31.8788 22.075 31.4388 22.045C30.9988 22.025 30.5638 21.99 30.1338 21.94C30.1738 21.68 30.2288 21.155 30.2988 20.365C30.3688 19.565 30.4388 18.625 30.5088 17.545C30.5788 16.455 30.6438 15.33 30.7038 14.17C30.7738 13.01 30.8288 11.925 30.8688 10.915C30.9088 9.895 30.9288 9.08 30.9288 8.47C31.1588 8.45 31.4888 8.43 31.9188 8.41C32.3588 8.39 32.8338 8.37 33.3438 8.35C33.8538 8.33 34.3388 8.315 34.7988 8.305C35.2588 8.295 35.6188 8.29 35.8788 8.29C35.9488 8.61 35.9988 9.135 36.0288 9.865C36.0688 10.595 36.0888 11.41 36.0888 12.31C36.0888 13.22 36.0738 14.17 36.0438 15.16C36.0138 16.15 35.9738 17.105 35.9238 18.025C35.8738 18.945 35.8088 19.755 35.7288 20.455C35.6588 21.155 35.5838 21.66 35.5038 21.97ZM33.5688 6.49C32.5888 6.49 31.7588 6.21 31.0788 5.65C30.4088 5.08 30.0738 4.325 30.0738 3.385C30.0738 2.745 30.2338 2.2 30.5538 1.75C30.8738 1.29 31.2888 0.939999 31.7988 0.699999C32.3088 0.449999 32.8438 0.324999 33.4038 0.324999C34.3138 0.324999 35.0688 0.619999 35.6688 1.21C36.2788 1.79 36.5838 2.54 36.5838 3.46C36.5838 4.31 36.2938 5.03 35.7138 5.62C35.1338 6.2 34.4188 6.49 33.5688 6.49Z" fill="#8B2323"/>
</svg>
